<?xml version="1.0" encoding="UTF-8" standalone="no"?>
<!-- Created by Flowgorithm 4.5.0 (http://flowgorithm.org) -->

<svg xmlns:svg="http://www.w3.org/2000/svg" xmlns="http://www.w3.org/2000/svg" version="1.1" width="750" height="550">
	<rect x="0" y="0" width="750" height="550" fill="#FFFFFF"/>
	<g>
		<polyline fill="none" stroke="#404040" stroke-width="6" stroke-dasharray="none" points="375,125 375,186"/>
		<polygon fill="#404040" stroke="none" points="375,200 388,175 361,175"/>
		<polyline fill="none" stroke="#404040" stroke-width="6" stroke-dasharray="none" points="375,350 375,411"/>
		<polygon fill="#404040" stroke="none" points="375,425 388,400 361,400"/>
		<g>
			<path fill="#F0E0FF" stroke="#9070A0" stroke-width="3" stroke-dasharray="none" d="M 275,25 A 50 50, 0, 0 0, 275 125 L 475,125 A 50 50, 0, 0 0, 475 25 Z"/>
			<text x="375" y="40" fill="#301040" font-family="Arial" font-size="32pt" text-anchor="middle" direction="ltr">
				<tspan x="375" dy="50" unicode-bidi="embed">Principal</tspan>
			</text>
		</g>
		<g>
			<path fill="#F0E0FF" stroke="#9070A0" stroke-width="3" stroke-dasharray="none" d="M 275,425 A 50 50, 0, 0 0, 275 525 L 475,525 A 50 50, 0, 0 0, 475 425 Z"/>
			<text x="375" y="440" fill="#301040" font-family="Arial" font-size="32pt" text-anchor="middle" direction="ltr">
				<tspan x="375" dy="50" unicode-bidi="embed">Fin</tspan>
			</text>
		</g>
		<g>
			<path fill="#D8FFD8" stroke="#78A078" stroke-width="3" stroke-dasharray="none" d="M 100,200 L 25,350 L 650,350 L 725,200 Z"/>
			<text x="375" y="215" fill="#184018" font-family="Arial" font-size="32pt" text-anchor="middle" direction="ltr">
				<tspan x="375" dy="50" unicode-bidi="embed">Salida &quot;Mi nombre es: Julio</tspan>
				<tspan x="375" dy="50" unicode-bidi="embed"> Cesar Choque Mamani&quot;</tspan>
			</text>
		</g>
	</g>
</svg>
